{"asset":{"version":"2.0","generator":"Blockbench 4.11.2 glTF exporter"},"scenes":[{"nodes":[5],"name":"blockbench_export"}],"scene":0,"nodes":[{"name":"sphere","mesh":0},{"name":"sphere","mesh":1},{"translation":[0,-0.03125000000000001,0],"name":"cylinder","mesh":2},{"rotation":[0.7071067811865475,0,0,0.7071067811865476],"translation":[0,0,0.4375],"name":"cylinder","mesh":3},{"rotation":[0.7071067811865475,0,0,0.7071067811865476],"translation":[0,0,0.48125000000000007],"name":"cylinder","mesh":4},{"children":[0,1,2,3,4]}],"bufferViews":[{"buffer":0,"byteOffset":0,"byteLength":1512,"target":34962,"byteStride":12},{"buffer":0,"byteOffset":1512,"byteLength":1512,"target":34962,"byteStride":12},{"buffer":0,"byteOffset":3024,"byteLength":1008,"target":34962,"byteStride":8},{"buffer":0,"byteOffset":4032,"byteLength":348,"target":34963},{"buffer":0,"byteOffset":4380,"byteLength":1512,"target":34962,"byteStride":12},{"buffer":0,"byteOffset":5892,"byteLength":1512,"target":34962,"byteStride":12},{"buffer":0,"byteOffset":7404,"byteLength":1008,"target":34962,"byteStride":8},{"buffer":0,"byteOffset":8412,"byteLength":348,"target":34963},{"buffer":0,"byteOffset":8760,"byteLength":1200,"target":34962,"byteStride":12},{"buffer":0,"byteOffset":9960,"byteLength":1200,"target":34962,"byteStride":12},{"buffer":0,"byteOffset":11160,"byteLength":800,"target":34962,"byteStride":8},{"buffer":0,"byteOffset":11960,"byteLength":240,"target":34963},{"buffer":0,"byteOffset":12200,"byteLength":1200,"target":34962,"byteStride":12},{"buffer":0,"byteOffset":13400,"byteLength":1200,"target":34962,"byteStride":12},{"buffer":0,"byteOffset":14600,"byteLength":800,"target":34962,"byteStride":8},{"buffer":0,"byteOffset":15400,"byteLength":240,"target":34963},{"buffer":0,"byteOffset":15640,"byteLength":1200,"target":34962,"byteStride":12},{"buffer":0,"byteOffset":16840,"byteLength":1200,"target":34962,"byteStride":12},{"buffer":0,"byteOffset":18040,"byteLength":800,"target":34962,"byteStride":8},{"buffer":0,"byteOffset":18840,"byteLength":240,"target":34963}],"buffers":[{"byteLength":19080,"uri":"data:application/octet-stream;base64,"}],"accessors":[{"bufferView":0,"componentType":5126,"count":126,"max":[0.5,0.5,0.4755282700061798],"min":[-0.5,0.032991502434015274,-0.4755282700061798],"type":"VEC3"},{"bufferView":1,"componentType":5126,"count":126,"max":[0.9510565400123596,0.9510565400123596,1],"min":[-0.9510565400123596,-1,-1],"type":"VEC3"},{"bufferView":2,"componentType":5126,"count":126,"max":[0.7647531032562256,0.7823479771614075],"min":[0,0],"type":"VEC2"},{"bufferView":3,"componentType":5123,"count":174,"max":[125],"min":[0],"type":"SCALAR"},{"bufferView":4,"componentType":5126,"count":126,"max":[0.5,-0.032991502434015274,0.4755282700061798],"min":[-0.5,-0.5,-0.4755282700061798],"type":"VEC3"},{"bufferView":5,"componentType":5126,"count":126,"max":[0.9510565400123596,1,1],"min":[-0.9510565400123596,-0.9510565400123596,-1],"type":"VEC3"},{"bufferView":6,"componentType":5126,"count":126,"max":[0.810756266117096,0.828125],"min":[0.0008718749741092324,0.125],"type":"VEC2"},{"bufferView":7,"componentType":5123,"count":174,"max":[125],"min":[0],"type":"SCALAR"},{"bufferView":8,"componentType":5126,"count":100,"max":[0.4600147306919098,0.0625,0.4375],"min":[-0.4600147306919098,0,-0.4375],"type":"VEC3"},{"bufferView":9,"componentType":5126,"count":100,"max":[0.9510565400123596,1,1],"min":[-0.9510565400123596,-1,-1],"type":"VEC3"},{"bufferView":10,"componentType":5126,"count":100,"max":[0.890625,0.703125],"min":[0.36155936121940613,0],"type":"VEC2"},{"bufferView":11,"componentType":5123,"count":120,"max":[99],"min":[0],"type":"SCALAR"},{"bufferView":12,"componentType":5126,"count":100,"max":[0.13143277168273926,0.0625,0.125],"min":[-0.13143277168273926,0,-0.125],"type":"VEC3"},{"bufferView":13,"componentType":5126,"count":100,"max":[0.9510565400123596,1,1],"min":[-0.9510565400123596,-1,-1],"type":"VEC3"},{"bufferView":14,"componentType":5126,"count":100,"max":[0.796875,0.78125],"min":[0,0],"type":"VEC2"},{"bufferView":15,"componentType":5123,"count":120,"max":[99],"min":[0],"type":"SCALAR"},{"bufferView":16,"componentType":5126,"count":100,"max":[0.09375,0.04374999925494194,0.09375],"min":[-0.09375,0.01875000074505806,-0.09375],"type":"VEC3"},{"bufferView":17,"componentType":5126,"count":100,"max":[0.955422580242157,1,1],"min":[-0.955422580242157,-1,-1],"type":"VEC3"},{"bufferView":18,"componentType":5126,"count":100,"max":[0.796875,0.7562500238418579],"min":[0,0],"type":"VEC2"},{"bufferView":19,"componentType":5123,"count":120,"max":[99],"min":[0],"type":"SCALAR"}],"materials":[{"pbrMetallicRoughness":{"metallicFactor":0,"roughnessFactor":1,"baseColorTexture":{"index":0}},"alphaMode":"MASK","alphaCutoff":0.05,"doubleSided":true}],"textures":[{"sampler":0,"source":0,"name":"ballTexture"}],"samplers":[{"magFilter":9728,"minFilter":9728,"wrapS":33071,"wrapT":33071}],"images":[{"mimeType":"image/png","uri":"data:image/png;base64,"}],"meshes":[{"primitives":[{"mode":4,"attributes":{"POSITION":0,"NORMAL":1,"TEXCOORD_0":2},"indices":3,"material":0}]},{"primitives":[{"mode":4,"attributes":{"POSITION":4,"NORMAL":5,"TEXCOORD_0":6},"indices":7,"material":0}]},{"primitives":[{"mode":4,"attributes":{"POSITION":8,"NORMAL":9,"TEXCOORD_0":10},"indices":11,"material":0}]},{"primitives":[{"mode":4,"attributes":{"POSITION":12,"NORMAL":13,"TEXCOORD_0":14},"indices":15,"material":0}]},{"primitives":[{"mode":4,"attributes":{"POSITION":16,"NORMAL":17,"TEXCOORD_0":18},"indices":19,"material":0}]}]}